<mxfile host="Electron" modified="2024-03-11T18:12:25.405Z" agent="Mozilla/5.0 (Windows NT 10.0; Win64; x64) AppleWebKit/537.36 (KHTML, like Gecko) draw.io/22.0.0 Chrome/114.0.5735.289 Electron/25.8.3 Safari/537.36" etag="RWj0QmaMdA3VBkv80377" version="22.0.0" type="device">
  <diagram name="Page-1" id="muLGFRcbvZJjaOLJ9_g9">
    <mxGraphModel dx="1941" dy="1839" grid="1" gridSize="10" guides="1" tooltips="1" connect="1" arrows="1" fold="1" page="1" pageScale="1" pageWidth="850" pageHeight="1100" math="0" shadow="0">
      <root>
        <mxCell id="0" />
        <mxCell id="1" parent="0" />
        <mxCell id="_5ADlvDaST6qmJXqZXYF-98" value="" style="rounded=0;whiteSpace=wrap;html=1;dashed=1;" parent="1" vertex="1">
          <mxGeometry x="-825" y="-1080" width="1267" height="530" as="geometry" />
        </mxCell>
        <mxCell id="N_aqeByG3ck3YnSyiemr-94" value="" style="rounded=0;whiteSpace=wrap;html=1;dashed=1;" parent="1" vertex="1">
          <mxGeometry x="-825" y="-550" width="1267" height="600" as="geometry" />
        </mxCell>
        <mxCell id="N_aqeByG3ck3YnSyiemr-96" value="" style="rounded=0;whiteSpace=wrap;html=1;dashed=1;" parent="1" vertex="1">
          <mxGeometry x="-825" y="50" width="1267" height="340" as="geometry" />
        </mxCell>
        <mxCell id="N_aqeByG3ck3YnSyiemr-1" value="UserDto" style="swimlane;fontStyle=0;childLayout=stackLayout;horizontal=1;startSize=26;fillColor=none;horizontalStack=0;resizeParent=1;resizeParentMax=0;resizeLast=0;collapsible=1;marginBottom=0;whiteSpace=wrap;html=1;" parent="1" vertex="1">
          <mxGeometry x="-504" y="-133" width="182.5" height="164" as="geometry" />
        </mxCell>
        <mxCell id="N_aqeByG3ck3YnSyiemr-2" value="+ Id: GUID" style="text;strokeColor=none;fillColor=none;align=left;verticalAlign=top;spacingLeft=4;spacingRight=4;overflow=hidden;rotatable=0;points=[[0,0.5],[1,0.5]];portConstraint=eastwest;whiteSpace=wrap;html=1;" parent="N_aqeByG3ck3YnSyiemr-1" vertex="1">
          <mxGeometry y="26" width="182.5" height="26" as="geometry" />
        </mxCell>
        <mxCell id="N_aqeByG3ck3YnSyiemr-3" value="+ UserName: string" style="text;strokeColor=none;fillColor=none;align=left;verticalAlign=top;spacingLeft=4;spacingRight=4;overflow=hidden;rotatable=0;points=[[0,0.5],[1,0.5]];portConstraint=eastwest;whiteSpace=wrap;html=1;" parent="N_aqeByG3ck3YnSyiemr-1" vertex="1">
          <mxGeometry y="52" width="182.5" height="26" as="geometry" />
        </mxCell>
        <mxCell id="N_aqeByG3ck3YnSyiemr-76" value="+ Full Name: string" style="text;strokeColor=none;fillColor=none;align=left;verticalAlign=top;spacingLeft=4;spacingRight=4;overflow=hidden;rotatable=0;points=[[0,0.5],[1,0.5]];portConstraint=eastwest;whiteSpace=wrap;html=1;" parent="N_aqeByG3ck3YnSyiemr-1" vertex="1">
          <mxGeometry y="78" width="182.5" height="26" as="geometry" />
        </mxCell>
        <mxCell id="N_aqeByG3ck3YnSyiemr-75" value="+ Email: string" style="text;strokeColor=none;fillColor=none;align=left;verticalAlign=top;spacingLeft=4;spacingRight=4;overflow=hidden;rotatable=0;points=[[0,0.5],[1,0.5]];portConstraint=eastwest;whiteSpace=wrap;html=1;" parent="N_aqeByG3ck3YnSyiemr-1" vertex="1">
          <mxGeometry y="104" width="182.5" height="26" as="geometry" />
        </mxCell>
        <mxCell id="_5ADlvDaST6qmJXqZXYF-108" value="" style="line;strokeWidth=1;fillColor=none;align=left;verticalAlign=middle;spacingTop=-1;spacingLeft=3;spacingRight=3;rotatable=0;labelPosition=right;points=[];portConstraint=eastwest;strokeColor=inherit;" parent="N_aqeByG3ck3YnSyiemr-1" vertex="1">
          <mxGeometry y="130" width="182.5" height="8" as="geometry" />
        </mxCell>
        <mxCell id="N_aqeByG3ck3YnSyiemr-90" value="+ IsDisabled(): boolean" style="text;strokeColor=none;fillColor=none;align=left;verticalAlign=top;spacingLeft=4;spacingRight=4;overflow=hidden;rotatable=0;points=[[0,0.5],[1,0.5]];portConstraint=eastwest;whiteSpace=wrap;html=1;" parent="N_aqeByG3ck3YnSyiemr-1" vertex="1">
          <mxGeometry y="138" width="182.5" height="26" as="geometry" />
        </mxCell>
        <mxCell id="N_aqeByG3ck3YnSyiemr-9" value="UsersService" style="swimlane;fontStyle=0;childLayout=stackLayout;horizontal=1;startSize=26;fillColor=none;horizontalStack=0;resizeParent=1;resizeParentMax=0;resizeLast=0;collapsible=1;marginBottom=0;whiteSpace=wrap;html=1;" parent="1" vertex="1">
          <mxGeometry x="-788" y="-240" width="215" height="216" as="geometry" />
        </mxCell>
        <mxCell id="N_aqeByG3ck3YnSyiemr-11" value="&lt;div style=&quot;&quot;&gt;+&amp;nbsp;UserService(UserRepository, IPasswordHasher)&lt;/div&gt;" style="text;strokeColor=none;fillColor=none;align=left;verticalAlign=top;spacingLeft=4;spacingRight=4;overflow=hidden;rotatable=0;points=[[0,0.5],[1,0.5]];portConstraint=eastwest;whiteSpace=wrap;html=1;" parent="N_aqeByG3ck3YnSyiemr-9" vertex="1">
          <mxGeometry y="26" width="215" height="34" as="geometry" />
        </mxCell>
        <mxCell id="N_aqeByG3ck3YnSyiemr-41" value="+ CreateUser(UserDto) : GUID;" style="text;strokeColor=none;fillColor=none;align=left;verticalAlign=top;spacingLeft=4;spacingRight=4;overflow=hidden;rotatable=0;points=[[0,0.5],[1,0.5]];portConstraint=eastwest;whiteSpace=wrap;html=1;" parent="N_aqeByG3ck3YnSyiemr-9" vertex="1">
          <mxGeometry y="60" width="215" height="26" as="geometry" />
        </mxCell>
        <mxCell id="N_aqeByG3ck3YnSyiemr-86" value="+ GetAll() : UserDto[];" style="text;strokeColor=none;fillColor=none;align=left;verticalAlign=top;spacingLeft=4;spacingRight=4;overflow=hidden;rotatable=0;points=[[0,0.5],[1,0.5]];portConstraint=eastwest;whiteSpace=wrap;html=1;" parent="N_aqeByG3ck3YnSyiemr-9" vertex="1">
          <mxGeometry y="86" width="215" height="26" as="geometry" />
        </mxCell>
        <mxCell id="N_aqeByG3ck3YnSyiemr-40" value="+ UpdateUser(UserDto): void" style="text;strokeColor=none;fillColor=none;align=left;verticalAlign=top;spacingLeft=4;spacingRight=4;overflow=hidden;rotatable=0;points=[[0,0.5],[1,0.5]];portConstraint=eastwest;whiteSpace=wrap;html=1;" parent="N_aqeByG3ck3YnSyiemr-9" vertex="1">
          <mxGeometry y="112" width="215" height="26" as="geometry" />
        </mxCell>
        <mxCell id="N_aqeByG3ck3YnSyiemr-17" value="+ DisableUser(GUID): void" style="text;strokeColor=none;fillColor=none;align=left;verticalAlign=top;spacingLeft=4;spacingRight=4;overflow=hidden;rotatable=0;points=[[0,0.5],[1,0.5]];portConstraint=eastwest;whiteSpace=wrap;html=1;" parent="N_aqeByG3ck3YnSyiemr-9" vertex="1">
          <mxGeometry y="138" width="215" height="26" as="geometry" />
        </mxCell>
        <mxCell id="N_aqeByG3ck3YnSyiemr-91" value="+ EnableUser(GUID): void" style="text;strokeColor=none;fillColor=none;align=left;verticalAlign=top;spacingLeft=4;spacingRight=4;overflow=hidden;rotatable=0;points=[[0,0.5],[1,0.5]];portConstraint=eastwest;whiteSpace=wrap;html=1;" parent="N_aqeByG3ck3YnSyiemr-9" vertex="1">
          <mxGeometry y="164" width="215" height="26" as="geometry" />
        </mxCell>
        <mxCell id="N_aqeByG3ck3YnSyiemr-89" value="+ ChangePassword(GUID, string)" style="text;strokeColor=none;fillColor=none;align=left;verticalAlign=top;spacingLeft=4;spacingRight=4;overflow=hidden;rotatable=0;points=[[0,0.5],[1,0.5]];portConstraint=eastwest;whiteSpace=wrap;html=1;" parent="N_aqeByG3ck3YnSyiemr-9" vertex="1">
          <mxGeometry y="190" width="215" height="26" as="geometry" />
        </mxCell>
        <mxCell id="N_aqeByG3ck3YnSyiemr-26" value="«interface»&lt;br&gt;&lt;b&gt;IUsersService&lt;/b&gt;" style="html=1;whiteSpace=wrap;" parent="1" vertex="1">
          <mxGeometry x="-783" y="-360" width="210" height="50" as="geometry" />
        </mxCell>
        <mxCell id="N_aqeByG3ck3YnSyiemr-27" value="" style="endArrow=block;dashed=1;endFill=0;endSize=12;html=1;rounded=0;entryX=0.5;entryY=1;entryDx=0;entryDy=0;exitX=0.5;exitY=0;exitDx=0;exitDy=0;" parent="1" source="N_aqeByG3ck3YnSyiemr-9" target="N_aqeByG3ck3YnSyiemr-26" edge="1">
          <mxGeometry width="160" relative="1" as="geometry">
            <mxPoint x="-610.25" y="-262" as="sourcePoint" />
            <mxPoint x="-769.25" y="-381" as="targetPoint" />
          </mxGeometry>
        </mxCell>
        <mxCell id="N_aqeByG3ck3YnSyiemr-95" value="FoodAuth.BusinessLayer" style="text;html=1;strokeColor=default;fillColor=none;align=center;verticalAlign=middle;whiteSpace=wrap;rounded=0;dashed=1;" parent="1" vertex="1">
          <mxGeometry x="-825" y="-550" width="170" height="30" as="geometry" />
        </mxCell>
        <mxCell id="N_aqeByG3ck3YnSyiemr-97" value="FoodAuth.DataAccess" style="text;html=1;strokeColor=default;fillColor=none;align=center;verticalAlign=middle;whiteSpace=wrap;rounded=0;dashed=1;" parent="1" vertex="1">
          <mxGeometry x="-825" y="50" width="170" height="30" as="geometry" />
        </mxCell>
        <mxCell id="N_aqeByG3ck3YnSyiemr-98" value="UsersRepository" style="swimlane;fontStyle=0;childLayout=stackLayout;horizontal=1;startSize=26;fillColor=none;horizontalStack=0;resizeParent=1;resizeParentMax=0;resizeLast=0;collapsible=1;marginBottom=0;whiteSpace=wrap;html=1;" parent="1" vertex="1">
          <mxGeometry x="-725.5" y="210" width="215" height="156" as="geometry" />
        </mxCell>
        <mxCell id="N_aqeByG3ck3YnSyiemr-99" value="&lt;div style=&quot;text-align: center;&quot;&gt;+ UsersRepository(DataContext)&lt;/div&gt;" style="text;strokeColor=none;fillColor=none;align=left;verticalAlign=top;spacingLeft=4;spacingRight=4;overflow=hidden;rotatable=0;points=[[0,0.5],[1,0.5]];portConstraint=eastwest;whiteSpace=wrap;html=1;" parent="N_aqeByG3ck3YnSyiemr-98" vertex="1">
          <mxGeometry y="26" width="215" height="26" as="geometry" />
        </mxCell>
        <mxCell id="N_aqeByG3ck3YnSyiemr-100" value="+ Create(User) : User;" style="text;strokeColor=none;fillColor=none;align=left;verticalAlign=top;spacingLeft=4;spacingRight=4;overflow=hidden;rotatable=0;points=[[0,0.5],[1,0.5]];portConstraint=eastwest;whiteSpace=wrap;html=1;" parent="N_aqeByG3ck3YnSyiemr-98" vertex="1">
          <mxGeometry y="52" width="215" height="26" as="geometry" />
        </mxCell>
        <mxCell id="N_aqeByG3ck3YnSyiemr-101" value="+ GetAll() : User[];" style="text;strokeColor=none;fillColor=none;align=left;verticalAlign=top;spacingLeft=4;spacingRight=4;overflow=hidden;rotatable=0;points=[[0,0.5],[1,0.5]];portConstraint=eastwest;whiteSpace=wrap;html=1;" parent="N_aqeByG3ck3YnSyiemr-98" vertex="1">
          <mxGeometry y="78" width="215" height="26" as="geometry" />
        </mxCell>
        <mxCell id="N_aqeByG3ck3YnSyiemr-102" value="+ Update(User): void" style="text;strokeColor=none;fillColor=none;align=left;verticalAlign=top;spacingLeft=4;spacingRight=4;overflow=hidden;rotatable=0;points=[[0,0.5],[1,0.5]];portConstraint=eastwest;whiteSpace=wrap;html=1;" parent="N_aqeByG3ck3YnSyiemr-98" vertex="1">
          <mxGeometry y="104" width="215" height="26" as="geometry" />
        </mxCell>
        <mxCell id="N_aqeByG3ck3YnSyiemr-103" value="+ Delete(GUID): void" style="text;strokeColor=none;fillColor=none;align=left;verticalAlign=top;spacingLeft=4;spacingRight=4;overflow=hidden;rotatable=0;points=[[0,0.5],[1,0.5]];portConstraint=eastwest;whiteSpace=wrap;html=1;" parent="N_aqeByG3ck3YnSyiemr-98" vertex="1">
          <mxGeometry y="130" width="215" height="26" as="geometry" />
        </mxCell>
        <mxCell id="N_aqeByG3ck3YnSyiemr-107" value="«interface»&lt;br&gt;&lt;b&gt;IUsersRepository&lt;/b&gt;" style="html=1;whiteSpace=wrap;" parent="1" vertex="1">
          <mxGeometry x="-728" y="100" width="220" height="50" as="geometry" />
        </mxCell>
        <mxCell id="N_aqeByG3ck3YnSyiemr-108" value="" style="endArrow=block;dashed=1;endFill=0;endSize=12;html=1;rounded=0;entryX=0.5;entryY=1;entryDx=0;entryDy=0;exitX=0.5;exitY=0;exitDx=0;exitDy=0;" parent="1" source="N_aqeByG3ck3YnSyiemr-98" target="N_aqeByG3ck3YnSyiemr-107" edge="1">
          <mxGeometry width="160" relative="1" as="geometry">
            <mxPoint x="-617.5" y="200" as="sourcePoint" />
            <mxPoint x="-815.5" y="129" as="targetPoint" />
          </mxGeometry>
        </mxCell>
        <mxCell id="N_aqeByG3ck3YnSyiemr-125" value="User" style="swimlane;fontStyle=0;childLayout=stackLayout;horizontal=1;startSize=26;fillColor=none;horizontalStack=0;resizeParent=1;resizeParentMax=0;resizeLast=0;collapsible=1;marginBottom=0;whiteSpace=wrap;html=1;" parent="1" vertex="1">
          <mxGeometry x="-468" y="158" width="140" height="208" as="geometry" />
        </mxCell>
        <mxCell id="N_aqeByG3ck3YnSyiemr-126" value="+ Id: GUID" style="text;strokeColor=none;fillColor=none;align=left;verticalAlign=top;spacingLeft=4;spacingRight=4;overflow=hidden;rotatable=0;points=[[0,0.5],[1,0.5]];portConstraint=eastwest;whiteSpace=wrap;html=1;" parent="N_aqeByG3ck3YnSyiemr-125" vertex="1">
          <mxGeometry y="26" width="140" height="26" as="geometry" />
        </mxCell>
        <mxCell id="N_aqeByG3ck3YnSyiemr-135" value="+ Password: string" style="text;strokeColor=none;fillColor=none;align=left;verticalAlign=top;spacingLeft=4;spacingRight=4;overflow=hidden;rotatable=0;points=[[0,0.5],[1,0.5]];portConstraint=eastwest;whiteSpace=wrap;html=1;" parent="N_aqeByG3ck3YnSyiemr-125" vertex="1">
          <mxGeometry y="52" width="140" height="26" as="geometry" />
        </mxCell>
        <mxCell id="N_aqeByG3ck3YnSyiemr-127" value="+ UserName: string" style="text;strokeColor=none;fillColor=none;align=left;verticalAlign=top;spacingLeft=4;spacingRight=4;overflow=hidden;rotatable=0;points=[[0,0.5],[1,0.5]];portConstraint=eastwest;whiteSpace=wrap;html=1;" parent="N_aqeByG3ck3YnSyiemr-125" vertex="1">
          <mxGeometry y="78" width="140" height="26" as="geometry" />
        </mxCell>
        <mxCell id="N_aqeByG3ck3YnSyiemr-128" value="+ Full Name: string" style="text;strokeColor=none;fillColor=none;align=left;verticalAlign=top;spacingLeft=4;spacingRight=4;overflow=hidden;rotatable=0;points=[[0,0.5],[1,0.5]];portConstraint=eastwest;whiteSpace=wrap;html=1;" parent="N_aqeByG3ck3YnSyiemr-125" vertex="1">
          <mxGeometry y="104" width="140" height="26" as="geometry" />
        </mxCell>
        <mxCell id="N_aqeByG3ck3YnSyiemr-129" value="+ Email: string" style="text;strokeColor=none;fillColor=none;align=left;verticalAlign=top;spacingLeft=4;spacingRight=4;overflow=hidden;rotatable=0;points=[[0,0.5],[1,0.5]];portConstraint=eastwest;whiteSpace=wrap;html=1;" parent="N_aqeByG3ck3YnSyiemr-125" vertex="1">
          <mxGeometry y="130" width="140" height="26" as="geometry" />
        </mxCell>
        <mxCell id="N_aqeByG3ck3YnSyiemr-130" value="+ State: enum" style="text;strokeColor=none;fillColor=none;align=left;verticalAlign=top;spacingLeft=4;spacingRight=4;overflow=hidden;rotatable=0;points=[[0,0.5],[1,0.5]];portConstraint=eastwest;whiteSpace=wrap;html=1;" parent="N_aqeByG3ck3YnSyiemr-125" vertex="1">
          <mxGeometry y="156" width="140" height="26" as="geometry" />
        </mxCell>
        <mxCell id="N_aqeByG3ck3YnSyiemr-131" value="+ Password: string" style="text;strokeColor=none;fillColor=none;align=left;verticalAlign=top;spacingLeft=4;spacingRight=4;overflow=hidden;rotatable=0;points=[[0,0.5],[1,0.5]];portConstraint=eastwest;whiteSpace=wrap;html=1;" parent="N_aqeByG3ck3YnSyiemr-125" vertex="1">
          <mxGeometry y="182" width="140" height="26" as="geometry" />
        </mxCell>
        <mxCell id="_5ADlvDaST6qmJXqZXYF-99" value="FoodAuth.WebAPI" style="text;html=1;strokeColor=default;fillColor=none;align=center;verticalAlign=middle;whiteSpace=wrap;rounded=0;dashed=1;" parent="1" vertex="1">
          <mxGeometry x="-825" y="-1080" width="170" height="30" as="geometry" />
        </mxCell>
        <mxCell id="_5ADlvDaST6qmJXqZXYF-102" value="Use" style="endArrow=open;endSize=12;dashed=1;html=1;rounded=0;exitX=1;exitY=0.5;exitDx=0;exitDy=0;entryX=0.5;entryY=0;entryDx=0;entryDy=0;" parent="1" source="N_aqeByG3ck3YnSyiemr-41" target="N_aqeByG3ck3YnSyiemr-1" edge="1">
          <mxGeometry width="160" relative="1" as="geometry">
            <mxPoint x="2" y="90" as="sourcePoint" />
            <mxPoint x="162" y="90" as="targetPoint" />
            <Array as="points">
              <mxPoint x="-413" y="-170" />
            </Array>
          </mxGeometry>
        </mxCell>
        <mxCell id="_5ADlvDaST6qmJXqZXYF-103" value="Use" style="endArrow=open;endSize=12;dashed=1;html=1;rounded=0;entryX=-0.006;entryY=0.067;entryDx=0;entryDy=0;entryPerimeter=0;" parent="1" target="N_aqeByG3ck3YnSyiemr-125" edge="1">
          <mxGeometry width="160" relative="1" as="geometry">
            <mxPoint x="-508" y="220" as="sourcePoint" />
            <mxPoint x="-465" y="137.5" as="targetPoint" />
          </mxGeometry>
        </mxCell>
        <mxCell id="_5ADlvDaST6qmJXqZXYF-109" value="AccountController" style="swimlane;fontStyle=0;childLayout=stackLayout;horizontal=1;startSize=26;fillColor=none;horizontalStack=0;resizeParent=1;resizeParentMax=0;resizeLast=0;collapsible=1;marginBottom=0;whiteSpace=wrap;html=1;" parent="1" vertex="1">
          <mxGeometry x="-218" y="-870" width="225" height="172" as="geometry" />
        </mxCell>
        <mxCell id="_5ADlvDaST6qmJXqZXYF-110" value="&lt;div style=&quot;text-align: center;&quot;&gt;+ AccountController()&lt;/div&gt;&lt;b style=&quot;border-color: var(--border-color); text-align: center;&quot;&gt;&lt;br&gt;&lt;/b&gt;" style="text;strokeColor=none;fillColor=none;align=left;verticalAlign=top;spacingLeft=4;spacingRight=4;overflow=hidden;rotatable=0;points=[[0,0.5],[1,0.5]];portConstraint=eastwest;whiteSpace=wrap;html=1;" parent="_5ADlvDaST6qmJXqZXYF-109" vertex="1">
          <mxGeometry y="26" width="225" height="24" as="geometry" />
        </mxCell>
        <mxCell id="_5ADlvDaST6qmJXqZXYF-111" value="+ Login(UserLoginModel) : IActionResult;" style="text;strokeColor=none;fillColor=none;align=left;verticalAlign=top;spacingLeft=4;spacingRight=4;overflow=hidden;rotatable=0;points=[[0,0.5],[1,0.5]];portConstraint=eastwest;whiteSpace=wrap;html=1;" parent="_5ADlvDaST6qmJXqZXYF-109" vertex="1">
          <mxGeometry y="50" width="225" height="40" as="geometry" />
        </mxCell>
        <mxCell id="_5ADlvDaST6qmJXqZXYF-112" value="+ ChangePassword(UserLoginModel) : LoginActionResponse;" style="text;strokeColor=none;fillColor=none;align=left;verticalAlign=top;spacingLeft=4;spacingRight=4;overflow=hidden;rotatable=0;points=[[0,0.5],[1,0.5]];portConstraint=eastwest;whiteSpace=wrap;html=1;" parent="_5ADlvDaST6qmJXqZXYF-109" vertex="1">
          <mxGeometry y="90" width="225" height="40" as="geometry" />
        </mxCell>
        <mxCell id="UnXTM3uxFK6fCBbmyO53-55" value="+ DisableUser(UserLoginModel) : IActionResult" style="text;strokeColor=none;fillColor=none;align=left;verticalAlign=top;spacingLeft=4;spacingRight=4;overflow=hidden;rotatable=0;points=[[0,0.5],[1,0.5]];portConstraint=eastwest;whiteSpace=wrap;html=1;" parent="_5ADlvDaST6qmJXqZXYF-109" vertex="1">
          <mxGeometry y="130" width="225" height="42" as="geometry" />
        </mxCell>
        <mxCell id="UnXTM3uxFK6fCBbmyO53-1" value="UserVerificationService" style="swimlane;fontStyle=0;childLayout=stackLayout;horizontal=1;startSize=26;fillColor=none;horizontalStack=0;resizeParent=1;resizeParentMax=0;resizeLast=0;collapsible=1;marginBottom=0;whiteSpace=wrap;html=1;" parent="1" vertex="1">
          <mxGeometry x="-502" y="-368" width="250" height="114" as="geometry" />
        </mxCell>
        <mxCell id="UnXTM3uxFK6fCBbmyO53-38" value="+ UserVerificationService(IUsersRepository , IPasswordHasher)" style="text;strokeColor=none;fillColor=none;align=left;verticalAlign=top;spacingLeft=4;spacingRight=4;overflow=hidden;rotatable=0;points=[[0,0.5],[1,0.5]];portConstraint=eastwest;whiteSpace=wrap;html=1;" parent="UnXTM3uxFK6fCBbmyO53-1" vertex="1">
          <mxGeometry y="26" width="250" height="44" as="geometry" />
        </mxCell>
        <mxCell id="UnXTM3uxFK6fCBbmyO53-3" value="+ TryVerifyUser(username, hashedPass, out VerifiedUserDto user) : bool;" style="text;strokeColor=none;fillColor=none;align=left;verticalAlign=top;spacingLeft=4;spacingRight=4;overflow=hidden;rotatable=0;points=[[0,0.5],[1,0.5]];portConstraint=eastwest;whiteSpace=wrap;html=1;" parent="UnXTM3uxFK6fCBbmyO53-1" vertex="1">
          <mxGeometry y="70" width="250" height="44" as="geometry" />
        </mxCell>
        <mxCell id="UnXTM3uxFK6fCBbmyO53-10" value="&lt;b&gt;IPasswordHasher&lt;/b&gt;" style="swimlane;fontStyle=0;childLayout=stackLayout;horizontal=1;startSize=26;fillColor=none;horizontalStack=0;resizeParent=1;resizeParentMax=0;resizeLast=0;collapsible=1;marginBottom=0;whiteSpace=wrap;html=1;" parent="1" vertex="1">
          <mxGeometry x="12" y="-240" width="230" height="78" as="geometry" />
        </mxCell>
        <mxCell id="UnXTM3uxFK6fCBbmyO53-11" value="+ ComputeHash(string): string" style="text;strokeColor=none;fillColor=none;align=left;verticalAlign=top;spacingLeft=4;spacingRight=4;overflow=hidden;rotatable=0;points=[[0,0.5],[1,0.5]];portConstraint=eastwest;whiteSpace=wrap;html=1;" parent="UnXTM3uxFK6fCBbmyO53-10" vertex="1">
          <mxGeometry y="26" width="230" height="26" as="geometry" />
        </mxCell>
        <mxCell id="UnXTM3uxFK6fCBbmyO53-12" value="+ VarifyHash(string, string): string" style="text;strokeColor=none;fillColor=none;align=left;verticalAlign=top;spacingLeft=4;spacingRight=4;overflow=hidden;rotatable=0;points=[[0,0.5],[1,0.5]];portConstraint=eastwest;whiteSpace=wrap;html=1;" parent="UnXTM3uxFK6fCBbmyO53-10" vertex="1">
          <mxGeometry y="52" width="230" height="26" as="geometry" />
        </mxCell>
        <mxCell id="UnXTM3uxFK6fCBbmyO53-14" value="MD5PasswordHasher" style="swimlane;fontStyle=0;childLayout=stackLayout;horizontal=1;startSize=26;fillColor=none;horizontalStack=0;resizeParent=1;resizeParentMax=0;resizeLast=0;collapsible=1;marginBottom=0;whiteSpace=wrap;html=1;" parent="1" vertex="1">
          <mxGeometry x="12" y="-90" width="230" height="78" as="geometry" />
        </mxCell>
        <mxCell id="UnXTM3uxFK6fCBbmyO53-15" value="+ ComputeHash(string): string" style="text;strokeColor=none;fillColor=none;align=left;verticalAlign=top;spacingLeft=4;spacingRight=4;overflow=hidden;rotatable=0;points=[[0,0.5],[1,0.5]];portConstraint=eastwest;whiteSpace=wrap;html=1;" parent="UnXTM3uxFK6fCBbmyO53-14" vertex="1">
          <mxGeometry y="26" width="230" height="26" as="geometry" />
        </mxCell>
        <mxCell id="UnXTM3uxFK6fCBbmyO53-16" value="+ VarifyHash(string, string): string" style="text;strokeColor=none;fillColor=none;align=left;verticalAlign=top;spacingLeft=4;spacingRight=4;overflow=hidden;rotatable=0;points=[[0,0.5],[1,0.5]];portConstraint=eastwest;whiteSpace=wrap;html=1;" parent="UnXTM3uxFK6fCBbmyO53-14" vertex="1">
          <mxGeometry y="52" width="230" height="26" as="geometry" />
        </mxCell>
        <mxCell id="UnXTM3uxFK6fCBbmyO53-18" value="" style="endArrow=block;dashed=1;endFill=0;endSize=12;html=1;rounded=0;exitX=0.5;exitY=0;exitDx=0;exitDy=0;" parent="1" source="UnXTM3uxFK6fCBbmyO53-14" target="UnXTM3uxFK6fCBbmyO53-12" edge="1">
          <mxGeometry width="160" relative="1" as="geometry">
            <mxPoint x="-128" y="-656" as="sourcePoint" />
            <mxPoint x="32" y="-656" as="targetPoint" />
          </mxGeometry>
        </mxCell>
        <mxCell id="UnXTM3uxFK6fCBbmyO53-21" value="" style="endArrow=block;dashed=1;endFill=0;endSize=12;html=1;rounded=0;entryX=0.5;entryY=1;entryDx=0;entryDy=0;" parent="1" source="UnXTM3uxFK6fCBbmyO53-1" target="UnXTM3uxFK6fCBbmyO53-30" edge="1">
          <mxGeometry width="160" relative="1" as="geometry">
            <mxPoint x="-308" y="-560" as="sourcePoint" />
            <mxPoint x="-263" y="-860" as="targetPoint" />
          </mxGeometry>
        </mxCell>
        <mxCell id="UnXTM3uxFK6fCBbmyO53-22" value="VerifiedUserDto" style="swimlane;fontStyle=0;childLayout=stackLayout;horizontal=1;startSize=26;fillColor=none;horizontalStack=0;resizeParent=1;resizeParentMax=0;resizeLast=0;collapsible=1;marginBottom=0;whiteSpace=wrap;html=1;" parent="1" vertex="1">
          <mxGeometry x="-197.37" y="-488" width="182.5" height="78" as="geometry" />
        </mxCell>
        <mxCell id="UnXTM3uxFK6fCBbmyO53-24" value="+ UserName: string" style="text;strokeColor=none;fillColor=none;align=left;verticalAlign=top;spacingLeft=4;spacingRight=4;overflow=hidden;rotatable=0;points=[[0,0.5],[1,0.5]];portConstraint=eastwest;whiteSpace=wrap;html=1;" parent="UnXTM3uxFK6fCBbmyO53-22" vertex="1">
          <mxGeometry y="26" width="182.5" height="26" as="geometry" />
        </mxCell>
        <mxCell id="UnXTM3uxFK6fCBbmyO53-25" value="+ Role: enum (UserRole)" style="text;strokeColor=none;fillColor=none;align=left;verticalAlign=top;spacingLeft=4;spacingRight=4;overflow=hidden;rotatable=0;points=[[0,0.5],[1,0.5]];portConstraint=eastwest;whiteSpace=wrap;html=1;" parent="UnXTM3uxFK6fCBbmyO53-22" vertex="1">
          <mxGeometry y="52" width="182.5" height="26" as="geometry" />
        </mxCell>
        <mxCell id="UnXTM3uxFK6fCBbmyO53-30" value="«interface»&lt;br&gt;&lt;b&gt;IUserVerificationService&lt;/b&gt;" style="html=1;whiteSpace=wrap;" parent="1" vertex="1">
          <mxGeometry x="-502" y="-488" width="250" height="50" as="geometry" />
        </mxCell>
        <mxCell id="UnXTM3uxFK6fCBbmyO53-37" value="Use" style="endArrow=open;endSize=12;dashed=1;html=1;rounded=0;entryX=0.483;entryY=1.1;entryDx=0;entryDy=0;exitX=1.024;exitY=0.295;exitDx=0;exitDy=0;exitPerimeter=0;entryPerimeter=0;" parent="1" source="UnXTM3uxFK6fCBbmyO53-38" target="UnXTM3uxFK6fCBbmyO53-25" edge="1">
          <mxGeometry width="160" relative="1" as="geometry">
            <mxPoint x="-78" y="-370" as="sourcePoint" />
            <mxPoint x="-148" y="-660" as="targetPoint" />
            <Array as="points">
              <mxPoint x="-106" y="-330" />
            </Array>
          </mxGeometry>
        </mxCell>
        <mxCell id="UnXTM3uxFK6fCBbmyO53-41" value="Use" style="endArrow=open;endSize=12;dashed=1;html=1;rounded=0;entryX=0.5;entryY=0;entryDx=0;entryDy=0;exitX=1.008;exitY=0.259;exitDx=0;exitDy=0;exitPerimeter=0;" parent="1" source="UnXTM3uxFK6fCBbmyO53-3" target="UnXTM3uxFK6fCBbmyO53-10" edge="1">
          <mxGeometry width="160" relative="1" as="geometry">
            <mxPoint x="-398" y="-460" as="sourcePoint" />
            <mxPoint x="-238" y="-460" as="targetPoint" />
            <Array as="points">
              <mxPoint x="130" y="-290" />
            </Array>
          </mxGeometry>
        </mxCell>
        <mxCell id="UnXTM3uxFK6fCBbmyO53-42" value="«interface»&lt;br&gt;&lt;b&gt;IUsersRepository&lt;/b&gt;" style="html=1;whiteSpace=wrap;" parent="1" vertex="1">
          <mxGeometry x="-778" y="-488" width="200" height="50" as="geometry" />
        </mxCell>
        <mxCell id="UnXTM3uxFK6fCBbmyO53-43" value="Use" style="endArrow=open;endSize=12;dashed=1;html=1;rounded=0;entryX=0;entryY=0.5;entryDx=0;entryDy=0;exitX=0;exitY=0.5;exitDx=0;exitDy=0;" parent="1" source="N_aqeByG3ck3YnSyiemr-11" target="UnXTM3uxFK6fCBbmyO53-42" edge="1">
          <mxGeometry width="160" relative="1" as="geometry">
            <mxPoint x="-868" y="-205.5" as="sourcePoint" />
            <mxPoint x="-738" y="-463" as="targetPoint" />
            <Array as="points">
              <mxPoint x="-808" y="-200" />
              <mxPoint x="-808" y="-463" />
            </Array>
          </mxGeometry>
        </mxCell>
        <mxCell id="UnXTM3uxFK6fCBbmyO53-44" value="Use" style="endArrow=open;endSize=12;dashed=1;html=1;rounded=0;entryX=0.5;entryY=1;entryDx=0;entryDy=0;exitX=0;exitY=0.5;exitDx=0;exitDy=0;" parent="1" source="UnXTM3uxFK6fCBbmyO53-38" target="UnXTM3uxFK6fCBbmyO53-42" edge="1">
          <mxGeometry width="160" relative="1" as="geometry">
            <mxPoint x="-398" y="-360" as="sourcePoint" />
            <mxPoint x="-238" y="-360" as="targetPoint" />
          </mxGeometry>
        </mxCell>
        <mxCell id="UnXTM3uxFK6fCBbmyO53-45" value="Extends" style="endArrow=block;endSize=16;endFill=0;html=1;rounded=0;entryX=0.5;entryY=1;entryDx=0;entryDy=0;" parent="1" source="_5ADlvDaST6qmJXqZXYF-109" target="UnXTM3uxFK6fCBbmyO53-51" edge="1">
          <mxGeometry width="160" relative="1" as="geometry">
            <mxPoint x="102" y="-780" as="sourcePoint" />
            <mxPoint x="173.3924050632911" y="-921" as="targetPoint" />
          </mxGeometry>
        </mxCell>
        <mxCell id="UnXTM3uxFK6fCBbmyO53-51" value="ControllerBase" style="html=1;whiteSpace=wrap;" parent="1" vertex="1">
          <mxGeometry x="-214.25" y="-1030" width="216.25" height="50" as="geometry" />
        </mxCell>
        <mxCell id="UnXTM3uxFK6fCBbmyO53-52" value="«interface»&lt;br&gt;&lt;b&gt;ILogger&amp;lt;AccountsController&amp;gt;&lt;/b&gt;" style="html=1;whiteSpace=wrap;" parent="1" vertex="1">
          <mxGeometry x="132" y="-1050" width="265" height="50" as="geometry" />
        </mxCell>
        <mxCell id="UnXTM3uxFK6fCBbmyO53-53" value="«interface»&lt;br&gt;&lt;b&gt;IUserVerificationService&lt;/b&gt;" style="html=1;whiteSpace=wrap;" parent="1" vertex="1">
          <mxGeometry x="132" y="-980" width="265" height="50" as="geometry" />
        </mxCell>
        <mxCell id="UnXTM3uxFK6fCBbmyO53-54" value="«interface»&lt;br&gt;&lt;b&gt;IOptions&amp;lt;Options.AuthenticationOptions&amp;gt;&lt;/b&gt;" style="html=1;whiteSpace=wrap;" parent="1" vertex="1">
          <mxGeometry x="132" y="-910" width="265" height="50" as="geometry" />
        </mxCell>
        <mxCell id="UnXTM3uxFK6fCBbmyO53-56" value="Use" style="endArrow=open;endSize=12;dashed=1;html=1;rounded=0;entryX=0;entryY=0.5;entryDx=0;entryDy=0;exitX=1;exitY=0.5;exitDx=0;exitDy=0;" parent="1" source="_5ADlvDaST6qmJXqZXYF-110" target="UnXTM3uxFK6fCBbmyO53-52" edge="1">
          <mxGeometry width="160" relative="1" as="geometry">
            <mxPoint x="162" y="-660" as="sourcePoint" />
            <mxPoint x="322" y="-660" as="targetPoint" />
          </mxGeometry>
        </mxCell>
        <mxCell id="UnXTM3uxFK6fCBbmyO53-58" value="Use" style="endArrow=open;endSize=12;dashed=1;html=1;rounded=0;entryX=0;entryY=0.5;entryDx=0;entryDy=0;exitX=1;exitY=0.5;exitDx=0;exitDy=0;" parent="1" source="_5ADlvDaST6qmJXqZXYF-110" target="UnXTM3uxFK6fCBbmyO53-53" edge="1">
          <mxGeometry width="160" relative="1" as="geometry">
            <mxPoint x="162" y="-660" as="sourcePoint" />
            <mxPoint x="322" y="-660" as="targetPoint" />
          </mxGeometry>
        </mxCell>
        <mxCell id="UnXTM3uxFK6fCBbmyO53-59" value="Use" style="endArrow=open;endSize=12;dashed=1;html=1;rounded=0;entryX=0;entryY=0.5;entryDx=0;entryDy=0;exitX=1;exitY=0.5;exitDx=0;exitDy=0;" parent="1" source="_5ADlvDaST6qmJXqZXYF-110" target="UnXTM3uxFK6fCBbmyO53-54" edge="1">
          <mxGeometry width="160" relative="1" as="geometry">
            <mxPoint x="162" y="-660" as="sourcePoint" />
            <mxPoint x="322" y="-660" as="targetPoint" />
          </mxGeometry>
        </mxCell>
        <mxCell id="UnXTM3uxFK6fCBbmyO53-60" value="UserLoginModel" style="swimlane;fontStyle=0;childLayout=stackLayout;horizontal=1;startSize=26;fillColor=none;horizontalStack=0;resizeParent=1;resizeParentMax=0;resizeLast=0;collapsible=1;marginBottom=0;whiteSpace=wrap;html=1;" parent="1" vertex="1">
          <mxGeometry x="132" y="-840" width="270" height="52" as="geometry" />
        </mxCell>
        <mxCell id="UnXTM3uxFK6fCBbmyO53-61" value="+ Id: GUID" style="text;strokeColor=none;fillColor=none;align=left;verticalAlign=top;spacingLeft=4;spacingRight=4;overflow=hidden;rotatable=0;points=[[0,0.5],[1,0.5]];portConstraint=eastwest;whiteSpace=wrap;html=1;" parent="UnXTM3uxFK6fCBbmyO53-60" vertex="1">
          <mxGeometry y="26" width="270" height="26" as="geometry" />
        </mxCell>
        <mxCell id="UnXTM3uxFK6fCBbmyO53-64" value="Use" style="endArrow=open;endSize=12;dashed=1;html=1;rounded=0;entryX=0;entryY=0.5;entryDx=0;entryDy=0;exitX=1;exitY=0.5;exitDx=0;exitDy=0;" parent="1" source="_5ADlvDaST6qmJXqZXYF-111" target="UnXTM3uxFK6fCBbmyO53-61" edge="1">
          <mxGeometry width="160" relative="1" as="geometry">
            <mxPoint x="162" y="-660" as="sourcePoint" />
            <mxPoint x="322" y="-660" as="targetPoint" />
          </mxGeometry>
        </mxCell>
        <mxCell id="UnXTM3uxFK6fCBbmyO53-65" value="LoginActionResponse" style="swimlane;fontStyle=0;childLayout=stackLayout;horizontal=1;startSize=26;fillColor=none;horizontalStack=0;resizeParent=1;resizeParentMax=0;resizeLast=0;collapsible=1;marginBottom=0;whiteSpace=wrap;html=1;" parent="1" vertex="1">
          <mxGeometry x="132" y="-773" width="270" height="104" as="geometry" />
        </mxCell>
        <mxCell id="UnXTM3uxFK6fCBbmyO53-66" value="+ Token: string" style="text;strokeColor=none;fillColor=none;align=left;verticalAlign=top;spacingLeft=4;spacingRight=4;overflow=hidden;rotatable=0;points=[[0,0.5],[1,0.5]];portConstraint=eastwest;whiteSpace=wrap;html=1;" parent="UnXTM3uxFK6fCBbmyO53-65" vertex="1">
          <mxGeometry y="26" width="270" height="26" as="geometry" />
        </mxCell>
        <mxCell id="UnXTM3uxFK6fCBbmyO53-67" value="+ Role: string" style="text;strokeColor=none;fillColor=none;align=left;verticalAlign=top;spacingLeft=4;spacingRight=4;overflow=hidden;rotatable=0;points=[[0,0.5],[1,0.5]];portConstraint=eastwest;whiteSpace=wrap;html=1;" parent="UnXTM3uxFK6fCBbmyO53-65" vertex="1">
          <mxGeometry y="52" width="270" height="26" as="geometry" />
        </mxCell>
        <mxCell id="UnXTM3uxFK6fCBbmyO53-68" value="+ Message: string" style="text;strokeColor=none;fillColor=none;align=left;verticalAlign=top;spacingLeft=4;spacingRight=4;overflow=hidden;rotatable=0;points=[[0,0.5],[1,0.5]];portConstraint=eastwest;whiteSpace=wrap;html=1;" parent="UnXTM3uxFK6fCBbmyO53-65" vertex="1">
          <mxGeometry y="78" width="270" height="26" as="geometry" />
        </mxCell>
        <mxCell id="UnXTM3uxFK6fCBbmyO53-69" value="Use" style="endArrow=open;endSize=12;dashed=1;html=1;rounded=0;entryX=0.004;entryY=0.135;entryDx=0;entryDy=0;entryPerimeter=0;exitX=1;exitY=0.5;exitDx=0;exitDy=0;" parent="1" source="_5ADlvDaST6qmJXqZXYF-112" target="UnXTM3uxFK6fCBbmyO53-65" edge="1">
          <mxGeometry width="160" relative="1" as="geometry">
            <mxPoint x="-8" y="-670" as="sourcePoint" />
            <mxPoint x="322" y="-660" as="targetPoint" />
          </mxGeometry>
        </mxCell>
        <mxCell id="UnXTM3uxFK6fCBbmyO53-70" value="UsersController" style="swimlane;fontStyle=0;childLayout=stackLayout;horizontal=1;startSize=26;fillColor=none;horizontalStack=0;resizeParent=1;resizeParentMax=0;resizeLast=0;collapsible=1;marginBottom=0;whiteSpace=wrap;html=1;" parent="1" vertex="1">
          <mxGeometry x="-562.75" y="-870" width="300" height="170" as="geometry" />
        </mxCell>
        <mxCell id="UnXTM3uxFK6fCBbmyO53-71" value="&lt;div style=&quot;text-align: center;&quot;&gt;+ UsersController()&lt;/div&gt;&lt;b style=&quot;border-color: var(--border-color); text-align: center;&quot;&gt;&lt;br&gt;&lt;/b&gt;" style="text;strokeColor=none;fillColor=none;align=left;verticalAlign=top;spacingLeft=4;spacingRight=4;overflow=hidden;rotatable=0;points=[[0,0.5],[1,0.5]];portConstraint=eastwest;whiteSpace=wrap;html=1;" parent="UnXTM3uxFK6fCBbmyO53-70" vertex="1">
          <mxGeometry y="26" width="300" height="24" as="geometry" />
        </mxCell>
        <mxCell id="UnXTM3uxFK6fCBbmyO53-72" value="+ GetAll() : ActionResult&amp;lt;IEnumerable&amp;lt;UserModel&amp;gt;&amp;gt;;" style="text;strokeColor=none;fillColor=none;align=left;verticalAlign=top;spacingLeft=4;spacingRight=4;overflow=hidden;rotatable=0;points=[[0,0.5],[1,0.5]];portConstraint=eastwest;whiteSpace=wrap;html=1;" parent="UnXTM3uxFK6fCBbmyO53-70" vertex="1">
          <mxGeometry y="50" width="300" height="30" as="geometry" />
        </mxCell>
        <mxCell id="UnXTM3uxFK6fCBbmyO53-73" value="+ Create(UserCreateModel) : ActionResult;" style="text;strokeColor=none;fillColor=none;align=left;verticalAlign=top;spacingLeft=4;spacingRight=4;overflow=hidden;rotatable=0;points=[[0,0.5],[1,0.5]];portConstraint=eastwest;whiteSpace=wrap;html=1;" parent="UnXTM3uxFK6fCBbmyO53-70" vertex="1">
          <mxGeometry y="80" width="300" height="30" as="geometry" />
        </mxCell>
        <mxCell id="UnXTM3uxFK6fCBbmyO53-74" value="+ Update(UserModel) : ActionResult" style="text;strokeColor=none;fillColor=none;align=left;verticalAlign=top;spacingLeft=4;spacingRight=4;overflow=hidden;rotatable=0;points=[[0,0.5],[1,0.5]];portConstraint=eastwest;whiteSpace=wrap;html=1;" parent="UnXTM3uxFK6fCBbmyO53-70" vertex="1">
          <mxGeometry y="110" width="300" height="30" as="geometry" />
        </mxCell>
        <mxCell id="UnXTM3uxFK6fCBbmyO53-75" value="+ Delete(UserDeleteModel) : ActionResult" style="text;strokeColor=none;fillColor=none;align=left;verticalAlign=top;spacingLeft=4;spacingRight=4;overflow=hidden;rotatable=0;points=[[0,0.5],[1,0.5]];portConstraint=eastwest;whiteSpace=wrap;html=1;" parent="UnXTM3uxFK6fCBbmyO53-70" vertex="1">
          <mxGeometry y="140" width="300" height="30" as="geometry" />
        </mxCell>
        <mxCell id="UnXTM3uxFK6fCBbmyO53-76" value="Extends" style="endArrow=block;endSize=16;endFill=0;html=1;rounded=0;entryX=0;entryY=0.5;entryDx=0;entryDy=0;exitX=0.5;exitY=0;exitDx=0;exitDy=0;" parent="1" source="UnXTM3uxFK6fCBbmyO53-70" target="UnXTM3uxFK6fCBbmyO53-51" edge="1">
          <mxGeometry x="-0.4608" width="160" relative="1" as="geometry">
            <mxPoint x="-398" y="-680" as="sourcePoint" />
            <mxPoint x="-238" y="-680" as="targetPoint" />
            <Array as="points">
              <mxPoint x="-413" y="-1005" />
            </Array>
            <mxPoint as="offset" />
          </mxGeometry>
        </mxCell>
        <mxCell id="UnXTM3uxFK6fCBbmyO53-78" value="«interface»&lt;br&gt;&lt;b&gt;ILogger&amp;lt;UsersController&amp;gt;&lt;/b&gt;" style="html=1;whiteSpace=wrap;" parent="1" vertex="1">
          <mxGeometry x="-813" y="-1025" width="205" height="50" as="geometry" />
        </mxCell>
        <mxCell id="UnXTM3uxFK6fCBbmyO53-79" value="«interface»&lt;br&gt;&lt;b&gt;IUsersService&lt;/b&gt;" style="html=1;whiteSpace=wrap;" parent="1" vertex="1">
          <mxGeometry x="-813" y="-950" width="205" height="50" as="geometry" />
        </mxCell>
        <mxCell id="UnXTM3uxFK6fCBbmyO53-80" value="Use" style="endArrow=open;endSize=12;dashed=1;html=1;rounded=0;entryX=1;entryY=0.5;entryDx=0;entryDy=0;exitX=0.25;exitY=0;exitDx=0;exitDy=0;" parent="1" source="UnXTM3uxFK6fCBbmyO53-70" target="UnXTM3uxFK6fCBbmyO53-78" edge="1">
          <mxGeometry x="-0.28" width="160" relative="1" as="geometry">
            <mxPoint x="-398" y="-780" as="sourcePoint" />
            <mxPoint x="-238" y="-780" as="targetPoint" />
            <Array as="points">
              <mxPoint x="-488" y="-1000" />
            </Array>
            <mxPoint as="offset" />
          </mxGeometry>
        </mxCell>
        <mxCell id="UnXTM3uxFK6fCBbmyO53-81" value="Use" style="endArrow=open;endSize=12;dashed=1;html=1;rounded=0;entryX=0.5;entryY=1;entryDx=0;entryDy=0;exitX=0;exitY=0.118;exitDx=0;exitDy=0;exitPerimeter=0;" parent="1" source="UnXTM3uxFK6fCBbmyO53-70" target="UnXTM3uxFK6fCBbmyO53-79" edge="1">
          <mxGeometry x="0.5776" width="160" relative="1" as="geometry">
            <mxPoint x="-398" y="-720" as="sourcePoint" />
            <mxPoint x="-238" y="-720" as="targetPoint" />
            <Array as="points">
              <mxPoint x="-708" y="-850" />
            </Array>
            <mxPoint as="offset" />
          </mxGeometry>
        </mxCell>
        <mxCell id="UnXTM3uxFK6fCBbmyO53-83" value="UserCreateModel" style="swimlane;fontStyle=0;childLayout=stackLayout;horizontal=1;startSize=26;fillColor=none;horizontalStack=0;resizeParent=1;resizeParentMax=0;resizeLast=0;collapsible=1;marginBottom=0;whiteSpace=wrap;html=1;" parent="1" vertex="1">
          <mxGeometry x="-538" y="-692" width="145" height="104" as="geometry" />
        </mxCell>
        <mxCell id="UnXTM3uxFK6fCBbmyO53-89" value="+ UserName: string" style="text;strokeColor=none;fillColor=none;align=left;verticalAlign=top;spacingLeft=4;spacingRight=4;overflow=hidden;rotatable=0;points=[[0,0.5],[1,0.5]];portConstraint=eastwest;whiteSpace=wrap;html=1;" parent="UnXTM3uxFK6fCBbmyO53-83" vertex="1">
          <mxGeometry y="26" width="145" height="26" as="geometry" />
        </mxCell>
        <mxCell id="UnXTM3uxFK6fCBbmyO53-90" value="+ Full Name: string" style="text;strokeColor=none;fillColor=none;align=left;verticalAlign=top;spacingLeft=4;spacingRight=4;overflow=hidden;rotatable=0;points=[[0,0.5],[1,0.5]];portConstraint=eastwest;whiteSpace=wrap;html=1;" parent="UnXTM3uxFK6fCBbmyO53-83" vertex="1">
          <mxGeometry y="52" width="145" height="26" as="geometry" />
        </mxCell>
        <mxCell id="UnXTM3uxFK6fCBbmyO53-91" value="+ Email: string" style="text;strokeColor=none;fillColor=none;align=left;verticalAlign=top;spacingLeft=4;spacingRight=4;overflow=hidden;rotatable=0;points=[[0,0.5],[1,0.5]];portConstraint=eastwest;whiteSpace=wrap;html=1;" parent="UnXTM3uxFK6fCBbmyO53-83" vertex="1">
          <mxGeometry y="78" width="145" height="26" as="geometry" />
        </mxCell>
        <mxCell id="UnXTM3uxFK6fCBbmyO53-87" value="UserModel" style="swimlane;fontStyle=0;childLayout=stackLayout;horizontal=1;startSize=26;fillColor=none;horizontalStack=0;resizeParent=1;resizeParentMax=0;resizeLast=0;collapsible=1;marginBottom=0;whiteSpace=wrap;html=1;" parent="1" vertex="1">
          <mxGeometry x="-813" y="-825" width="175" height="156" as="geometry" />
        </mxCell>
        <mxCell id="UnXTM3uxFK6fCBbmyO53-92" value="+ Id: string" style="text;strokeColor=none;fillColor=none;align=left;verticalAlign=top;spacingLeft=4;spacingRight=4;overflow=hidden;rotatable=0;points=[[0,0.5],[1,0.5]];portConstraint=eastwest;whiteSpace=wrap;html=1;" parent="UnXTM3uxFK6fCBbmyO53-87" vertex="1">
          <mxGeometry y="26" width="175" height="26" as="geometry" />
        </mxCell>
        <mxCell id="UnXTM3uxFK6fCBbmyO53-93" value="+ UserName: string" style="text;strokeColor=none;fillColor=none;align=left;verticalAlign=top;spacingLeft=4;spacingRight=4;overflow=hidden;rotatable=0;points=[[0,0.5],[1,0.5]];portConstraint=eastwest;whiteSpace=wrap;html=1;" parent="UnXTM3uxFK6fCBbmyO53-87" vertex="1">
          <mxGeometry y="52" width="175" height="26" as="geometry" />
        </mxCell>
        <mxCell id="UnXTM3uxFK6fCBbmyO53-94" value="+ Full Name: string" style="text;strokeColor=none;fillColor=none;align=left;verticalAlign=top;spacingLeft=4;spacingRight=4;overflow=hidden;rotatable=0;points=[[0,0.5],[1,0.5]];portConstraint=eastwest;whiteSpace=wrap;html=1;" parent="UnXTM3uxFK6fCBbmyO53-87" vertex="1">
          <mxGeometry y="78" width="175" height="26" as="geometry" />
        </mxCell>
        <mxCell id="UnXTM3uxFK6fCBbmyO53-95" value="+ Email: string" style="text;strokeColor=none;fillColor=none;align=left;verticalAlign=top;spacingLeft=4;spacingRight=4;overflow=hidden;rotatable=0;points=[[0,0.5],[1,0.5]];portConstraint=eastwest;whiteSpace=wrap;html=1;" parent="UnXTM3uxFK6fCBbmyO53-87" vertex="1">
          <mxGeometry y="104" width="175" height="26" as="geometry" />
        </mxCell>
        <mxCell id="UnXTM3uxFK6fCBbmyO53-96" value="+ State: enum" style="text;strokeColor=none;fillColor=none;align=left;verticalAlign=top;spacingLeft=4;spacingRight=4;overflow=hidden;rotatable=0;points=[[0,0.5],[1,0.5]];portConstraint=eastwest;whiteSpace=wrap;html=1;" parent="UnXTM3uxFK6fCBbmyO53-87" vertex="1">
          <mxGeometry y="130" width="175" height="26" as="geometry" />
        </mxCell>
        <mxCell id="UnXTM3uxFK6fCBbmyO53-88" value="UserDeleteModel" style="swimlane;fontStyle=0;childLayout=stackLayout;horizontal=1;startSize=26;fillColor=none;horizontalStack=0;resizeParent=1;resizeParentMax=0;resizeLast=0;collapsible=1;marginBottom=0;whiteSpace=wrap;html=1;" parent="1" vertex="1">
          <mxGeometry x="-813" y="-640" width="175" height="52" as="geometry" />
        </mxCell>
        <mxCell id="UnXTM3uxFK6fCBbmyO53-97" value="+ Id: string" style="text;strokeColor=none;fillColor=none;align=left;verticalAlign=top;spacingLeft=4;spacingRight=4;overflow=hidden;rotatable=0;points=[[0,0.5],[1,0.5]];portConstraint=eastwest;whiteSpace=wrap;html=1;" parent="UnXTM3uxFK6fCBbmyO53-88" vertex="1">
          <mxGeometry y="26" width="175" height="26" as="geometry" />
        </mxCell>
        <mxCell id="UnXTM3uxFK6fCBbmyO53-99" value="Use" style="endArrow=open;endSize=12;dashed=1;html=1;rounded=0;exitX=0.747;exitY=1.1;exitDx=0;exitDy=0;exitPerimeter=0;entryX=0.993;entryY=0.173;entryDx=0;entryDy=0;entryPerimeter=0;" parent="1" source="UnXTM3uxFK6fCBbmyO53-75" target="UnXTM3uxFK6fCBbmyO53-83" edge="1">
          <mxGeometry width="160" relative="1" as="geometry">
            <mxPoint x="-398" y="-600" as="sourcePoint" />
            <mxPoint x="-238" y="-600" as="targetPoint" />
            <Array as="points">
              <mxPoint x="-338" y="-674" />
            </Array>
          </mxGeometry>
        </mxCell>
        <mxCell id="UnXTM3uxFK6fCBbmyO53-100" value="Use" style="endArrow=open;endSize=12;dashed=1;html=1;rounded=0;entryX=1;entryY=0.25;entryDx=0;entryDy=0;exitX=0;exitY=0.5;exitDx=0;exitDy=0;" parent="1" source="UnXTM3uxFK6fCBbmyO53-75" target="UnXTM3uxFK6fCBbmyO53-88" edge="1">
          <mxGeometry width="160" relative="1" as="geometry">
            <mxPoint x="-398" y="-600" as="sourcePoint" />
            <mxPoint x="-238" y="-600" as="targetPoint" />
          </mxGeometry>
        </mxCell>
        <mxCell id="UnXTM3uxFK6fCBbmyO53-101" value="Use" style="endArrow=open;endSize=12;dashed=1;html=1;rounded=0;entryX=1;entryY=0.096;entryDx=0;entryDy=0;entryPerimeter=0;exitX=0;exitY=0.5;exitDx=0;exitDy=0;" parent="1" source="UnXTM3uxFK6fCBbmyO53-72" target="UnXTM3uxFK6fCBbmyO53-87" edge="1">
          <mxGeometry width="160" relative="1" as="geometry">
            <mxPoint x="-398" y="-600" as="sourcePoint" />
            <mxPoint x="-238" y="-600" as="targetPoint" />
          </mxGeometry>
        </mxCell>
        <mxCell id="-IkcB-iW-3rUfYgfB-LP-1" value="Use" style="endArrow=open;endSize=12;dashed=1;html=1;rounded=0;exitX=1;exitY=0.5;exitDx=0;exitDy=0;entryX=0;entryY=0.5;entryDx=0;entryDy=0;" edge="1" parent="1" source="N_aqeByG3ck3YnSyiemr-11" target="UnXTM3uxFK6fCBbmyO53-11">
          <mxGeometry width="160" relative="1" as="geometry">
            <mxPoint x="-280" y="-110" as="sourcePoint" />
            <mxPoint x="-120" y="-110" as="targetPoint" />
          </mxGeometry>
        </mxCell>
      </root>
    </mxGraphModel>
  </diagram>
</mxfile>
